<svg width="23" height="23" viewBox="0 0 23 23" fill="none" xmlns="http://www.w3.org/2000/svg">
<path d="M20.8019 2.76875H18.5031V2.18661C18.5031 1.63202 18.2335 1.11952 17.7958 0.842183C17.3581 0.564976 16.8188 0.564976 16.3811 0.842183C15.9435 1.11956 15.6738 1.63207 15.6738 2.18661V2.76875H7.5396V2.18661C7.5396 1.63202 7.26993 1.11952 6.83227 0.842183C6.39462 0.564976 5.85528 0.564976 5.41763 0.842183C4.97997 1.11956 4.7103 1.63207 4.7103 2.18661V2.76875H2.4115C1.94256 2.76875 1.49279 2.97319 1.16103 3.337C0.829473 3.70101 0.643188 4.19461 0.643188 4.7092V20.6209C0.643188 21.1355 0.829493 21.629 1.16103 21.9931C1.49275 22.3569 1.94256 22.5613 2.4115 22.5613H20.8019C21.2709 22.5613 21.7206 22.3569 22.0524 21.9931C22.3839 21.6291 22.5702 21.1355 22.5702 20.6209V4.7092C22.5702 4.19461 22.3839 3.70105 22.0524 3.337C21.7207 2.97317 21.2709 2.76875 20.8019 2.76875ZM16.3809 2.18661C16.3809 1.90923 16.5158 1.653 16.7346 1.5144C16.9534 1.37579 17.2231 1.37579 17.4419 1.5144C17.6608 1.653 17.7956 1.90924 17.7956 2.18661V4.51515C17.7956 4.79253 17.6608 5.04876 17.4419 5.18737C17.2231 5.32597 16.9534 5.32597 16.7346 5.18737C16.5158 5.04876 16.3809 4.79252 16.3809 4.51515V2.18661ZM5.41742 2.18661C5.41742 1.90923 5.55226 1.653 5.77109 1.5144C5.98992 1.37579 6.25958 1.37579 6.47841 1.5144C6.69724 1.653 6.83207 1.90924 6.83207 2.18661V4.51515C6.83207 4.79253 6.69724 5.04876 6.47841 5.18737C6.25958 5.32597 5.98991 5.32597 5.77109 5.18737C5.55226 5.04876 5.41742 4.79252 5.41742 4.51515V2.18661ZM2.4113 3.54493H4.7101V4.51515C4.7101 5.06974 4.97977 5.58224 5.41742 5.85958C5.85508 6.13679 6.39442 6.13679 6.83207 5.85958C7.26972 5.5822 7.5394 5.0697 7.5394 4.51515V3.54493H15.6736V4.51515C15.6736 5.06974 15.9433 5.58224 16.3809 5.85958C16.8186 6.13679 17.3579 6.13679 17.7956 5.85958C18.2332 5.5822 18.5029 5.0697 18.5029 4.51515V3.54493H20.8017C21.0831 3.54493 21.3531 3.66759 21.552 3.88589C21.7509 4.10419 21.8627 4.40048 21.8627 4.70918V7.61985H1.35029V4.70918C1.35029 4.40044 1.46207 4.10415 1.66101 3.88589C1.85994 3.66763 2.12994 3.54493 2.41126 3.54493H2.4113ZM20.8017 21.7851H2.4113C2.12995 21.7851 1.85995 21.6625 1.66105 21.4442C1.46215 21.2259 1.35033 20.9296 1.35033 20.6209V8.39629H21.8627V20.6209C21.8627 20.9296 21.7509 21.2259 21.552 21.4442C21.3531 21.6624 21.0831 21.7851 20.8018 21.7851H20.8017Z" fill="#5D6679"/>
</svg>
