<svg width="23" height="23" viewBox="0 0 23 23" fill="none" xmlns="http://www.w3.org/2000/svg">
<path d="M20.6635 2.76875H18.3647V2.18661C18.3647 1.63202 18.095 1.11952 17.6574 0.842183C17.2197 0.564976 16.6804 0.564976 16.2427 0.842183C15.8051 1.11956 15.5354 1.63207 15.5354 2.18661V2.76875H7.40117V2.18661C7.40117 1.63202 7.1315 1.11952 6.69385 0.842183C6.25619 0.564976 5.71685 0.564976 5.2792 0.842183C4.84155 1.11956 4.57187 1.63207 4.57187 2.18661V2.76875H2.27307C1.80414 2.76875 1.35436 2.97319 1.0226 3.337C0.691046 3.70101 0.504761 4.19461 0.504761 4.7092V20.6209C0.504761 21.1355 0.691066 21.629 1.0226 21.9931C1.35432 22.3569 1.80414 22.5613 2.27307 22.5613H20.6635C21.1324 22.5613 21.5822 22.3569 21.914 21.9931C22.2455 21.6291 22.4318 21.1355 22.4318 20.6209V4.7092C22.4318 4.19461 22.2455 3.70105 21.914 3.337C21.5823 2.97317 21.1324 2.76875 20.6635 2.76875ZM16.2425 2.18661C16.2425 1.90923 16.3774 1.653 16.5962 1.5144C16.815 1.37579 17.0847 1.37579 17.3035 1.5144C17.5223 1.653 17.6572 1.90924 17.6572 2.18661V4.51515C17.6572 4.79253 17.5223 5.04876 17.3035 5.18737C17.0847 5.32597 16.815 5.32597 16.5962 5.18737C16.3774 5.04876 16.2425 4.79252 16.2425 4.51515V2.18661ZM5.279 2.18661C5.279 1.90923 5.41383 1.653 5.63266 1.5144C5.85149 1.37579 6.12116 1.37579 6.33998 1.5144C6.55881 1.653 6.69364 1.90924 6.69364 2.18661V4.51515C6.69364 4.79253 6.55881 5.04876 6.33998 5.18737C6.12115 5.32597 5.85148 5.32597 5.63266 5.18737C5.41383 5.04876 5.279 4.79252 5.279 4.51515V2.18661ZM2.27287 3.54493H4.57167V4.51515C4.57167 5.06974 4.84134 5.58224 5.279 5.85958C5.71665 6.13679 6.25599 6.13679 6.69364 5.85958C7.1313 5.5822 7.40097 5.0697 7.40097 4.51515V3.54493H15.5352V4.51515C15.5352 5.06974 15.8049 5.58224 16.2425 5.85958C16.6802 6.13679 17.2195 6.13679 17.6572 5.85958C18.0948 5.5822 18.3645 5.0697 18.3645 4.51515V3.54493H20.6633C20.9446 3.54493 21.2146 3.66759 21.4135 3.88589C21.6124 4.10419 21.7243 4.40048 21.7243 4.70918V7.61985H1.21186V4.70918C1.21186 4.40044 1.32364 4.10415 1.52258 3.88589C1.72152 3.66763 1.99152 3.54493 2.27283 3.54493H2.27287ZM20.6633 21.7851H2.27287C1.99152 21.7851 1.72152 21.6625 1.52262 21.4442C1.32372 21.2259 1.2119 20.9296 1.2119 20.6209V8.39629H21.7243V20.6209C21.7243 20.9296 21.6125 21.2259 21.4136 21.4442C21.2146 21.6624 20.9446 21.7851 20.6633 21.7851H20.6633Z" fill="#448DF2"/>
</svg>
