<svg width="28" height="28" viewBox="0 0 28 28" fill="none" xmlns="http://www.w3.org/2000/svg">
<rect x="0.457886" width="27.0842" height="27.0842" rx="3.61122" fill="#EBFFED"/>
<path d="M17.5526 11.8161H12.0162C11.801 11.8161 11.6265 11.6563 11.6265 11.4591C11.6265 11.2619 11.8009 11.1021 12.0162 11.1021H17.5524C17.7676 11.1021 17.9421 11.2618 17.9421 11.4591C17.9421 11.6563 17.7676 11.8161 17.5526 11.8161H17.5526Z" fill="#58D365" fill-opacity="0.7"/>
<path d="M17.5527 14.4098H12.0162C11.801 14.4098 11.6265 14.25 11.6265 14.0528C11.6265 13.8557 11.8009 13.6958 12.0162 13.6958H17.5525C17.7677 13.6958 17.9422 13.8556 17.9422 14.0528C17.9422 14.25 17.7677 14.4098 17.5527 14.4098H17.5527Z" fill="#58D365" fill-opacity="0.7"/>
<path d="M12.0771 16.8376C11.8619 16.8376 11.6874 16.6778 11.6874 16.4806C11.6874 16.2834 11.8619 16.1235 12.0771 16.1235C14.1623 16.1235 15.9238 15.1276 15.9238 13.9487C15.9238 12.7697 14.1622 11.7736 12.0771 11.7736C11.8619 11.7736 11.6874 11.6138 11.6874 11.4166C11.6874 11.2194 11.8619 11.0596 12.0771 11.0596C14.6713 11.0596 16.7033 12.3286 16.7033 13.9486C16.7033 15.5685 14.6713 16.8375 12.0771 16.8375V16.8376Z" fill="#58D365" fill-opacity="0.7"/>
<path d="M16.241 21.0384C16.1372 21.0384 16.0337 21.0006 15.9569 20.9259L11.842 16.9149C11.6946 16.7712 11.7023 16.5453 11.8591 16.4103C12.0159 16.2753 12.2624 16.2824 12.4099 16.4259L16.5248 20.4369C16.6722 20.5806 16.6646 20.8065 16.5077 20.9415C16.4325 21.0062 16.3366 21.0384 16.2409 21.0384L16.241 21.0384Z" fill="#58D365" fill-opacity="0.7"/>
<path d="M4.09416 13.7338H5.97543V23.7672C5.97543 24.1184 6.25135 24.3943 6.60251 24.3943H22.9068C23.258 24.3943 23.5339 24.1184 23.5339 23.7672V13.7338H25.4151C25.967 13.7338 26.2429 13.0565 25.8666 12.6553L15.2061 1.99482C14.9552 1.74391 14.5539 1.74391 14.3281 1.99482L3.64293 12.6553C3.26657 13.0565 3.5425 13.7338 4.09434 13.7338H4.09416ZM14.7547 3.32416L23.9101 12.4796H22.9069C22.5557 12.4796 22.2798 12.7556 22.2798 13.1067V23.1401H7.22969V13.1067C7.22969 12.7556 6.95376 12.4796 6.6026 12.4796H5.59935L14.7547 3.32416Z" fill="#58D365" fill-opacity="0.7"/>
</svg>
