<svg width="20" height="20" viewBox="0 0 20 20" fill="none" xmlns="http://www.w3.org/2000/svg">
<path d="M13.7352 2.62024C13.943 2.41245 14.1896 2.24763 14.4611 2.13518C14.7326 2.02272 15.0236 1.96484 15.3175 1.96484C15.6113 1.96484 15.9023 2.02272 16.1738 2.13518C16.4453 2.24763 16.6919 2.41245 16.8997 2.62024C17.1075 2.82803 17.2723 3.07471 17.3848 3.34619C17.4972 3.61768 17.5551 3.90866 17.5551 4.20251C17.5551 4.49636 17.4972 4.78734 17.3848 5.05883C17.2723 5.33031 17.1075 5.57699 16.8997 5.78478L6.2194 16.4651L1.86816 17.6518L3.05487 13.3006L13.7352 2.62024Z" stroke="#5D6679" stroke-width="1.58227" stroke-linecap="round" stroke-linejoin="round"/>
</svg>
