<svg width="28" height="28" viewBox="0 0 28 28" fill="none" xmlns="http://www.w3.org/2000/svg">
<path d="M11.3138 23.7292H5.68247C4.43843 23.7292 3.42993 22.7207 3.42993 21.4767V13.9272C3.42993 13.3509 3.65085 12.7964 4.04723 12.378L11.9311 4.05616C12.8196 3.11834 14.3131 3.11834 15.2016 4.05616L23.0855 12.378C23.4819 12.7964 23.7028 13.3509 23.7028 13.9272V21.4767C23.7028 22.7207 22.6943 23.7292 21.4503 23.7292H15.8189M11.3138 23.7292V17.5347C11.3138 17.2237 11.5659 16.9716 11.877 16.9716H15.2558C15.5668 16.9716 15.8189 17.2237 15.8189 17.5347V23.7292M11.3138 23.7292H15.8189" stroke="#448DF2" stroke-width="1.6894"/>
</svg>
