<svg width="28" height="28" viewBox="0 0 28 28" fill="none" xmlns="http://www.w3.org/2000/svg">
<path d="M11.3138 23.729H5.68247C4.43843 23.729 3.42993 22.7205 3.42993 21.4764V13.927C3.42993 13.3506 3.65085 12.7962 4.04723 12.3778L11.9311 4.05592C12.8196 3.11809 14.3131 3.11809 15.2016 4.05592L23.0855 12.3778C23.4819 12.7962 23.7028 13.3506 23.7028 13.927V21.4764C23.7028 22.7205 22.6943 23.729 21.4503 23.729H15.8189M11.3138 23.729V17.5345C11.3138 17.2235 11.5659 16.9713 11.877 16.9713H15.2558C15.5668 16.9713 15.8189 17.2235 15.8189 17.5345V23.729M11.3138 23.729H15.8189" stroke="#5D6679" stroke-width="1.6894"/>
</svg>
