<svg width="28" height="28" viewBox="0 0 28 28" fill="none" xmlns="http://www.w3.org/2000/svg">
<path d="M24.8405 18.1926L24.8414 18.1959L24.8414 18.1959C25.0288 18.8997 24.6245 19.6638 23.9111 19.8017L17.2242 21.564C17.3073 22.8778 16.4597 24.1045 15.1436 24.447C13.8279 24.8151 12.4605 24.1697 11.8881 22.9977L10.785 23.2985L10.7838 23.2988C10.5501 23.3571 10.3072 23.2406 10.246 22.9973C10.2459 22.9971 10.2459 22.997 10.2458 22.9968L5.74531 6.4253L3.60648 6.96011L3.59282 6.90548L3.60648 6.96011C3.05553 7.09786 2.45095 6.76801 2.28591 6.19014M24.8405 18.1926L2.34005 6.17468M24.8405 18.1926L24.8404 18.1924L24.3448 16.3665C24.3447 16.3663 24.3447 16.3661 24.3446 16.3659C24.2834 16.1227 24.0405 16.0062 23.8068 16.0645L23.8063 16.0646L21.9548 16.5465L19.8816 8.84964C19.8815 8.84947 19.8815 8.8493 19.8814 8.84912C19.8202 8.60581 19.5773 8.48927 19.3436 8.54759L19.3427 8.54783L15.2991 9.62953L14.1918 5.53489L14.1372 5.54856L14.1915 5.53386L14.1917 5.53434M24.8405 18.1926L14.1917 5.53434M2.28591 6.19014L2.34005 6.17468M2.28591 6.19014C2.28591 6.19014 2.28591 6.19014 2.28591 6.19014L2.34005 6.17468M2.28591 6.19014C2.11998 5.60932 2.48029 5.03202 3.05539 4.86776L3.05727 4.86723L3.05728 4.86726L7.25851 3.82357M2.34005 6.17468C2.1835 5.62666 2.52266 5.07849 3.07086 4.92191L7.27299 3.878M7.25851 3.82357C7.25819 3.82366 7.25787 3.82375 7.25755 3.82384L7.27299 3.878M7.25851 3.82357L7.25941 3.82335L7.27299 3.878M7.25851 3.82357C7.46994 3.76385 7.71075 3.88452 7.77118 4.12493M7.27299 3.878C7.45559 3.82593 7.66442 3.93025 7.71667 4.13907M7.71667 4.13907L7.77106 4.1245L7.77118 4.12493M7.71667 4.13907L8.39523 6.67079M7.71667 4.13907L7.7713 4.12541C7.77126 4.12525 7.77122 4.12509 7.77118 4.12493M7.77118 4.12493L8.43512 6.60211M8.39523 6.67079L8.38094 6.61632L8.43512 6.60211M8.39523 6.67079L8.44962 6.65621L8.43512 6.60211M8.39523 6.67079L14.1917 5.53434M8.43512 6.60211L13.6532 5.23301L13.6538 5.23284C13.8875 5.17452 14.1305 5.29105 14.1917 5.53434M6.46572 5.82089L6.46581 5.82087L6.4648 5.81784C6.40641 5.64287 6.23129 5.49225 6.04599 5.49225H5.9677V5.49058L5.9543 5.49386L3.39653 6.12031L3.39652 6.12027L3.39447 6.12086C3.31766 6.14279 3.25812 6.12967 3.21452 6.10101C3.16963 6.0715 3.13683 6.02225 3.12183 5.96496C3.09163 5.84966 3.13594 5.72266 3.26859 5.68105L7.05022 4.72926L11.1593 19.8651C11.1593 19.8653 11.1594 19.8655 11.1594 19.8657C11.2206 20.109 11.4635 20.2255 11.6973 20.1672L11.6978 20.1671L12.2229 20.0309C11.7138 20.645 11.5134 21.4577 11.6202 22.21L10.9668 22.3678L6.46572 5.82089ZM12.5468 22.3926L12.5468 22.3925C12.2168 21.3268 12.8255 20.2369 13.8905 19.958L13.8911 19.9578C15.0077 19.6534 16.098 20.3898 16.3005 21.4023L16.3007 21.4034C16.5285 22.441 15.8714 23.3801 14.9048 23.66C13.8895 23.939 12.8507 23.3804 12.5468 22.3926ZM23.6751 19.014L17.0168 20.7757C16.7367 20.0569 16.1335 19.4744 15.4048 19.2046C16.1073 19.0183 16.8593 18.8192 17.6343 18.6139C19.6296 18.0855 21.7773 17.5167 23.624 17.0231L24.0009 18.4303L24.0009 18.4305C24.0714 18.6889 23.9311 18.944 23.6754 19.0139L23.6751 19.014ZM21.141 16.7839L11.8799 19.2346L9.89973 11.9569L19.1608 9.50624L21.141 16.7839ZM8.67308 7.44159L13.4709 6.16553L14.4595 9.84125L9.66155 11.1173L8.67308 7.44159Z" fill="#5D6679" stroke="#5D6679" stroke-width="0.112627"/>
</svg>
