<svg width="28" height="28" viewBox="0 0 28 28" fill="none" xmlns="http://www.w3.org/2000/svg">
<path d="M24.8405 18.1922L24.8414 18.1954L24.8414 18.1954C25.0288 18.8992 24.6245 19.6633 23.9111 19.8012L17.2242 21.5636C17.3073 22.8773 16.4597 24.104 15.1436 24.4465C13.8279 24.8146 12.4605 24.1692 11.8881 22.9972L10.785 23.298L10.7838 23.2983C10.5501 23.3567 10.3072 23.2401 10.246 22.9968C10.2459 22.9967 10.2459 22.9965 10.2458 22.9963L5.74531 6.42481L3.60648 6.95962L3.59282 6.90499L3.60648 6.95962C3.05553 7.09737 2.45095 6.76752 2.28591 6.18965M24.8405 18.1922L2.34005 6.17419M24.8405 18.1922L24.8404 18.1919L24.3448 16.366C24.3447 16.3658 24.3447 16.3656 24.3446 16.3654C24.2834 16.1222 24.0405 16.0057 23.8068 16.064L23.8063 16.0641L21.9548 16.546L19.8816 8.84915C19.8815 8.84898 19.8815 8.84881 19.8814 8.84863C19.8202 8.60533 19.5773 8.48878 19.3436 8.5471L19.3427 8.54735L15.2991 9.62904L14.1918 5.5344L14.1372 5.54807L14.1915 5.53337L14.1917 5.53385M24.8405 18.1922L14.1917 5.53385M2.28591 6.18965L2.34005 6.17419M2.28591 6.18965C2.28591 6.18965 2.28591 6.18965 2.28591 6.18966L2.34005 6.17419M2.28591 6.18965C2.11998 5.60883 2.48029 5.03154 3.05539 4.86728L3.05727 4.86674L3.05728 4.86677L7.25851 3.82308M2.34005 6.17419C2.1835 5.62618 2.52266 5.078 3.07086 4.92142L7.27299 3.87751M7.25851 3.82308C7.25819 3.82317 7.25787 3.82326 7.25755 3.82336L7.27299 3.87751M7.25851 3.82308L7.25941 3.82286L7.27299 3.87751M7.25851 3.82308C7.46994 3.76337 7.71075 3.88403 7.77118 4.12444M7.27299 3.87751C7.45559 3.82544 7.66442 3.92976 7.71667 4.13859M7.71667 4.13859L7.77106 4.12401L7.77118 4.12444M7.71667 4.13859L8.39523 6.67031M7.71667 4.13859L7.7713 4.12492C7.77126 4.12476 7.77122 4.1246 7.77118 4.12444M7.77118 4.12444L8.43512 6.60162M8.39523 6.67031L8.38094 6.61584L8.43512 6.60162M8.39523 6.67031L8.44962 6.65573L8.43512 6.60162M8.39523 6.67031L14.1917 5.53385M8.43512 6.60162L13.6532 5.23252L13.6538 5.23235C13.8875 5.17403 14.1305 5.29056 14.1917 5.53385M6.46572 5.8204L6.46581 5.82038L6.4648 5.81736C6.40641 5.64238 6.23129 5.49176 6.04599 5.49176H5.9677V5.49009L5.9543 5.49337L3.39653 6.11983L3.39652 6.11979L3.39447 6.12037C3.31766 6.1423 3.25812 6.12918 3.21452 6.10052C3.16963 6.07101 3.13683 6.02176 3.12183 5.96447C3.09163 5.84917 3.13594 5.72217 3.26859 5.68056L7.05022 4.72877L11.1593 19.8646C11.1593 19.8648 11.1594 19.865 11.1594 19.8652C11.2206 20.1085 11.4635 20.225 11.6973 20.1667L11.6978 20.1666L12.2229 20.0304C11.7138 20.6445 11.5134 21.4572 11.6202 22.2096L10.9668 22.3673L6.46572 5.8204ZM12.5468 22.3922L12.5468 22.3921C12.2168 21.3263 12.8255 20.2364 13.8905 19.9575L13.8911 19.9573C15.0077 19.6529 16.098 20.3893 16.3005 21.4018L16.3007 21.4029C16.5285 22.4405 15.8714 23.3796 14.9048 23.6595C13.8895 23.9386 12.8507 23.3799 12.5468 22.3922ZM23.6751 19.0136L17.0168 20.7752C16.7367 20.0564 16.1335 19.4739 15.4048 19.2041C16.1073 19.0178 16.8593 18.8187 17.6343 18.6134C19.6296 18.085 21.7773 17.5162 23.624 17.0226L24.0009 18.4298L24.0009 18.43C24.0714 18.6884 23.9311 18.9435 23.6754 19.0134L23.6751 19.0136ZM21.141 16.7834L11.8799 19.2341L9.89973 11.9564L19.1608 9.50575L21.141 16.7834ZM8.67308 7.4411L13.4709 6.16504L14.4595 9.84076L9.66155 11.1168L8.67308 7.4411Z" fill="#448DF2" stroke="#448DF2" stroke-width="0.112627"/>
</svg>
