<svg width="28" height="28" viewBox="0 0 28 28" fill="none" xmlns="http://www.w3.org/2000/svg">
<path d="M22.8013 14.3101V14.3091L22.7851 14.2927L17.8012 9.23409C17.6372 9.06763 17.3712 9.06767 17.207 9.23406C17.0433 9.40007 17.0435 9.66886 17.207 9.83479L17.2471 9.79527L17.207 9.8348L21.4768 14.1678H9.75078C9.51837 14.1678 9.33115 14.3591 9.33115 14.5929C9.33115 14.8267 9.51838 15.018 9.75078 15.018H21.4768L17.207 19.3514C17.0435 19.5174 17.0435 19.786 17.207 19.9521L17.207 19.9522C17.2889 20.0352 17.3961 20.077 17.504 20.077C17.6118 20.077 17.7193 20.0353 17.801 19.9521L17.801 19.9522L17.7609 19.9126L17.801 19.9521L22.8013 14.3101ZM22.8013 14.3101C22.8699 14.388 22.9078 14.4886 22.9076 14.5935M22.8013 14.3101L22.9076 14.5935M22.9076 14.5935C22.9076 14.5934 22.9076 14.5934 22.9076 14.5933H22.8513L22.9076 14.5935ZM14.2589 25.2346V25.2308H14.2025H5.78878C5.54155 25.2308 5.33885 25.0256 5.33885 24.7708V4.41498C5.33885 4.16042 5.54176 3.95498 5.78878 3.95498H14.2025C14.4349 3.95498 14.6222 3.76373 14.6222 3.5299C14.6222 3.29607 14.4349 3.10482 14.2025 3.10482H5.78878C5.07697 3.10482 4.49959 3.69357 4.49959 4.41499V24.7708C4.49959 25.4923 5.07697 26.081 5.78878 26.081H14.2025C14.4349 26.081 14.6222 25.8898 14.6222 25.6559C14.6222 25.4413 14.4646 25.2626 14.2589 25.2346Z" fill="#5D6679" stroke="#5D6679" stroke-width="0.112627"/>
</svg>
