<svg width="28" height="28" viewBox="0 0 28 28" fill="none" xmlns="http://www.w3.org/2000/svg">
<rect x="0.457886" width="27.0842" height="27.0842" rx="3.61122" fill="#FFEEDB"/>
<path fill-rule="evenodd" clip-rule="evenodd" d="M3.43867 15.1452C3.38336 14.9862 3.4674 14.8123 3.62635 14.756C11.1134 12.1498 17.6684 8.31623 23.126 3.36584L21.5741 3.45021C21.4069 3.45885 21.2621 3.33046 21.2529 3.16155C21.2438 2.99397 21.3727 2.84948 21.5409 2.84084L23.947 2.70996H23.9792C24.0588 2.71411 24.1345 2.74966 24.1885 2.80895C24.2503 2.87638 24.2785 2.96789 24.2651 3.05874L23.9178 5.44342C23.8957 5.59522 23.7653 5.70401 23.6165 5.70401C23.6019 5.70401 23.5873 5.70284 23.5722 5.70035C23.4054 5.67577 23.2901 5.52181 23.3142 5.35539L23.5384 3.81496C18.0196 8.8219 11.3935 12.6983 3.82658 15.3327C3.79336 15.3448 3.75965 15.3498 3.7261 15.3498C3.6002 15.3498 3.48245 15.2714 3.43844 15.1454L3.43867 15.1452ZM25.3815 24.6697V8.90223H23.0669V24.6697H25.3815ZM25.6866 8.29167H22.7621C22.5937 8.29167 22.457 8.42852 22.457 8.59627V24.9743C22.457 25.1432 22.5934 25.2789 22.7621 25.2789H25.6866C25.8551 25.2789 25.9917 25.143 25.9917 24.9743V8.59627C25.9917 8.42869 25.855 8.29167 25.6866 8.29167ZM19.0363 24.6697V12.2169H16.7217V24.6697H19.0363ZM19.3414 11.6064H16.4168C16.2484 11.6064 16.1117 11.7436 16.1117 11.9112V24.9744C16.1117 25.1434 16.2484 25.279 16.4168 25.279H19.3412C19.5096 25.279 19.6463 25.1432 19.6463 24.9744L19.6462 11.9112C19.6465 11.7436 19.5098 11.6064 19.3414 11.6064H19.3414ZM12.6911 24.6697V14.8964H10.3765V24.6692H12.6911V24.6697ZM12.9962 14.2876H10.0718C9.90337 14.2876 9.76668 14.4234 9.76668 14.5922V24.9743C9.76668 25.1432 9.90337 25.2789 10.0718 25.2789H12.9962C13.1646 25.2789 13.3013 25.143 13.3013 24.9743V14.5922C13.3013 14.4233 13.1646 14.2876 12.9962 14.2876ZM6.34595 24.6697H4.03169V18.8455H6.34629V24.6697H6.34595ZM6.65105 18.2358H3.72661C3.55803 18.2358 3.42151 18.3717 3.42151 18.5406V24.9744C3.42151 25.1434 3.55786 25.279 3.72661 25.279H6.65105C6.81947 25.279 6.95616 25.1432 6.95616 24.9744V18.5406C6.95616 18.3717 6.81947 18.236 6.65105 18.236V18.2358Z" fill="#DBA362" fill-opacity="0.8"/>
<path d="M19.7364 11.9113C19.7369 11.6938 19.5597 11.5161 19.3414 11.5161H16.4168C16.1985 11.5161 16.0214 11.6937 16.0214 11.9112V24.9744C16.0214 25.1935 16.1988 25.3693 16.4168 25.3693H19.3412C19.5592 25.3693 19.7366 25.1933 19.7366 24.9744L19.7364 11.9113ZM19.7364 11.9113L19.6462 11.9112L19.7364 11.9112V11.9113ZM22.8761 3.46984C17.466 8.32894 10.9867 12.0983 3.59667 14.6708L3.5962 14.6709C3.41183 14.7362 3.30508 14.9241 3.33694 15.111L3.33214 15.1148L3.3532 15.1751C3.41027 15.3386 3.56305 15.4401 3.7261 15.4401C3.7685 15.4401 3.81264 15.4338 3.85686 15.4178C11.3494 12.8092 17.9221 8.98411 23.413 4.04983L22.8761 3.46984ZM6.74134 18.156V18.1455H6.65105H3.72661C3.50837 18.1455 3.33123 18.3216 3.33123 18.5406V24.9744C3.33123 25.1934 3.50823 25.3693 3.72661 25.3693H6.65105C6.86907 25.3693 7.04644 25.1933 7.04644 24.9744V18.5406C7.04644 18.3527 6.91598 18.1967 6.74134 18.156ZM23.1571 8.99251H25.2912V24.5794H23.1571V8.99251ZM25.6866 8.20139H22.7621C22.5439 8.20139 22.3667 8.3786 22.3667 8.59627V24.9743C22.3667 25.1933 22.5437 25.3692 22.7621 25.3692H25.6866C25.9048 25.3692 26.0819 25.1931 26.0819 24.9743V8.59627C26.0819 8.3788 25.9048 8.20139 25.6866 8.20139ZM16.812 12.3072H18.946V24.5794H16.812V12.3072ZM10.4668 14.9867H12.6008V24.579H10.4668V14.9867ZM12.9962 14.1973H10.0718C9.85377 14.1973 9.6764 14.3733 9.6764 14.5922V24.9743C9.6764 25.1933 9.85379 25.3692 10.0718 25.3692H12.9962C13.2142 25.3692 13.3916 25.1931 13.3916 24.9743V14.5922C13.3916 14.3731 13.2142 14.1973 12.9962 14.1973ZM6.25601 24.5794H4.12197V18.9358H6.25601V24.5794Z" stroke="#DBA362" stroke-opacity="0.8" stroke-width="0.180561"/>
</svg>
