<svg width="28" height="28" viewBox="0 0 28 28" fill="none" xmlns="http://www.w3.org/2000/svg">
<path d="M18.5722 23.7769V14.6711C18.5722 14.3296 18.8624 14.0529 19.1978 14.0529C19.5434 14.0529 19.8235 14.3227 19.8235 14.6711V23.7769H21.0843C22.4516 23.7769 23.5778 22.6539 23.5778 21.2833V6.24775C23.5778 4.88047 22.4549 3.75421 21.0843 3.75421H6.04869C4.68141 3.75421 3.55515 4.87717 3.55515 6.24775V21.2833C3.55515 22.6506 4.67811 23.7769 6.04869 23.7769H7.30946V17.8093C7.30946 17.457 7.59967 17.1714 7.93514 17.1714C8.28065 17.1714 8.56082 17.4489 8.56082 17.8093V23.7769H11.0637V11.5557C11.0637 11.2127 11.3539 10.9348 11.6893 10.9348C12.035 10.9348 12.3152 11.2025 12.3152 11.5557V23.7769H14.8178V6.87974C14.8178 6.53596 15.1082 6.2572 15.4437 6.2572C15.7892 6.2572 16.0694 6.53625 16.0694 6.87974V23.7769H18.5722ZM2.30371 6.24783C2.30371 4.17961 3.99672 2.50293 6.04861 2.50293H21.0842C23.1524 2.50293 24.8291 4.19594 24.8291 6.24783V21.2834C24.8291 23.3516 23.1361 25.0283 21.0842 25.0283H6.04861C3.98039 25.0283 2.30371 23.3353 2.30371 21.2834V6.24783Z" fill="#5D6679"/>
</svg>
