<svg width="29" height="28" viewBox="0 0 29 28" fill="none" xmlns="http://www.w3.org/2000/svg">
<rect x="0.957886" width="27.0842" height="27.0842" rx="3.61122" fill="#ECEAFF"/>
<mask id="path-2-outside-1_2508_1071" maskUnits="userSpaceOnUse" x="2.66492" y="1.7085" width="24" height="23" fill="black">
<rect fill="white" x="2.66492" y="1.7085" width="24" height="23"/>
<path d="M17.9124 13.7358H11.9871C11.8128 13.7358 11.6713 13.8773 11.6713 14.0516V23.8739C11.6713 24.0481 11.8128 24.1897 11.9871 24.1897H17.9119C18.0862 24.1897 18.2278 24.0481 18.2278 23.8739L18.228 14.0516C18.228 13.8773 18.0864 13.7358 17.9121 13.7358H17.9124ZM12.3035 18.6255V17.6189H17.597V18.6261H12.3035V18.6255ZM17.5965 19.2573V20.2645H12.3035V19.2573H17.5965ZM12.3035 16.9872V15.98H17.597V16.9872H12.3035ZM12.3035 20.8964H17.597V21.9035H12.3035V20.8964ZM17.5965 14.3675V15.3484L12.3035 15.3482V14.3673L17.5965 14.3675ZM12.3035 23.5575V22.535H17.597L17.5968 23.5575H12.3035ZM25.9192 8.82432H19.9944C19.8201 8.82432 19.6786 8.96589 19.6786 9.14015L19.6784 23.8733C19.6784 24.0476 19.8199 24.1891 19.9942 24.1891H25.9191C26.0933 24.1891 26.2349 24.0476 26.2349 23.8733L26.2351 9.14015C26.2351 8.96589 26.094 8.82432 25.9192 8.82432ZM20.3103 16.9863V15.9791H25.6038V16.9863H20.3103ZM25.6038 17.6179V18.6251H20.3103V17.6179H25.6038ZM20.3103 15.3478V14.3406H25.6038V15.3478H20.3103ZM20.3103 13.709V12.7018H25.6038V13.709H20.3103ZM20.3103 19.2568H25.6038V20.264H20.3103V19.2568ZM25.6038 12.0698H20.3103V11.0626H25.6038V12.0698ZM20.3103 20.896H25.6038V21.9032H20.3103V20.896ZM25.6038 9.45572V10.4308H20.3103V9.45572H25.6038ZM20.3103 23.5571V22.5347H25.6038V23.5571H20.3103ZM9.9056 18.6462H3.98075C3.80649 18.6462 3.66492 18.7878 3.66492 18.962V23.8734C3.66492 24.0476 3.80649 24.1892 3.98075 24.1892H9.9056C10.0799 24.1892 10.2214 24.0477 10.2214 23.8734V18.9625C10.2216 18.7881 10.0799 18.6465 9.9056 18.6465V18.6462ZM4.29664 20.9149H9.59018V21.9199H4.29664V20.9149ZM9.59018 19.2781V20.283H4.29664V19.2781H9.59018ZM4.29664 23.5572V22.5522H9.59018V23.5572H4.29664ZM16.0003 10.5342L23.1944 3.34017H19.8901C19.7158 3.34017 19.5742 3.19859 19.5742 3.02433C19.5742 2.85007 19.7158 2.7085 19.8901 2.7085H23.9572C24.1314 2.7085 24.273 2.85007 24.273 3.02433V7.09143C24.273 7.26569 24.1314 7.40727 23.9572 7.40727C23.7829 7.40727 23.6413 7.2657 23.6413 7.09143V3.78712L16.224 11.2045C16.1008 11.3277 15.9008 11.3277 15.7771 11.2045L13.4295 8.85685L6.16724 16.1195C6.10573 16.1811 6.02456 16.2123 5.94395 16.2123C5.86334 16.2123 5.78236 16.1812 5.72067 16.1195C5.59745 15.9963 5.59745 15.7964 5.72067 15.6731L13.2066 8.18718C13.3299 8.06397 13.5298 8.06397 13.6536 8.18718L16.0003 10.5342Z"/>
</mask>
<path d="M17.9124 13.7358H11.9871C11.8128 13.7358 11.6713 13.8773 11.6713 14.0516V23.8739C11.6713 24.0481 11.8128 24.1897 11.9871 24.1897H17.9119C18.0862 24.1897 18.2278 24.0481 18.2278 23.8739L18.228 14.0516C18.228 13.8773 18.0864 13.7358 17.9121 13.7358H17.9124ZM12.3035 18.6255V17.6189H17.597V18.6261H12.3035V18.6255ZM17.5965 19.2573V20.2645H12.3035V19.2573H17.5965ZM12.3035 16.9872V15.98H17.597V16.9872H12.3035ZM12.3035 20.8964H17.597V21.9035H12.3035V20.8964ZM17.5965 14.3675V15.3484L12.3035 15.3482V14.3673L17.5965 14.3675ZM12.3035 23.5575V22.535H17.597L17.5968 23.5575H12.3035ZM25.9192 8.82432H19.9944C19.8201 8.82432 19.6786 8.96589 19.6786 9.14015L19.6784 23.8733C19.6784 24.0476 19.8199 24.1891 19.9942 24.1891H25.9191C26.0933 24.1891 26.2349 24.0476 26.2349 23.8733L26.2351 9.14015C26.2351 8.96589 26.094 8.82432 25.9192 8.82432ZM20.3103 16.9863V15.9791H25.6038V16.9863H20.3103ZM25.6038 17.6179V18.6251H20.3103V17.6179H25.6038ZM20.3103 15.3478V14.3406H25.6038V15.3478H20.3103ZM20.3103 13.709V12.7018H25.6038V13.709H20.3103ZM20.3103 19.2568H25.6038V20.264H20.3103V19.2568ZM25.6038 12.0698H20.3103V11.0626H25.6038V12.0698ZM20.3103 20.896H25.6038V21.9032H20.3103V20.896ZM25.6038 9.45572V10.4308H20.3103V9.45572H25.6038ZM20.3103 23.5571V22.5347H25.6038V23.5571H20.3103ZM9.9056 18.6462H3.98075C3.80649 18.6462 3.66492 18.7878 3.66492 18.962V23.8734C3.66492 24.0476 3.80649 24.1892 3.98075 24.1892H9.9056C10.0799 24.1892 10.2214 24.0477 10.2214 23.8734V18.9625C10.2216 18.7881 10.0799 18.6465 9.9056 18.6465V18.6462ZM4.29664 20.9149H9.59018V21.9199H4.29664V20.9149ZM9.59018 19.2781V20.283H4.29664V19.2781H9.59018ZM4.29664 23.5572V22.5522H9.59018V23.5572H4.29664ZM16.0003 10.5342L23.1944 3.34017H19.8901C19.7158 3.34017 19.5742 3.19859 19.5742 3.02433C19.5742 2.85007 19.7158 2.7085 19.8901 2.7085H23.9572C24.1314 2.7085 24.273 2.85007 24.273 3.02433V7.09143C24.273 7.26569 24.1314 7.40727 23.9572 7.40727C23.7829 7.40727 23.6413 7.2657 23.6413 7.09143V3.78712L16.224 11.2045C16.1008 11.3277 15.9008 11.3277 15.7771 11.2045L13.4295 8.85685L6.16724 16.1195C6.10573 16.1811 6.02456 16.2123 5.94395 16.2123C5.86334 16.2123 5.78236 16.1812 5.72067 16.1195C5.59745 15.9963 5.59745 15.7964 5.72067 15.6731L13.2066 8.18718C13.3299 8.06397 13.5298 8.06397 13.6536 8.18718L16.0003 10.5342Z" fill="#817AF3"/>
<path d="M17.9124 13.7358H11.9871C11.8128 13.7358 11.6713 13.8773 11.6713 14.0516V23.8739C11.6713 24.0481 11.8128 24.1897 11.9871 24.1897H17.9119C18.0862 24.1897 18.2278 24.0481 18.2278 23.8739L18.228 14.0516C18.228 13.8773 18.0864 13.7358 17.9121 13.7358H17.9124ZM12.3035 18.6255V17.6189H17.597V18.6261H12.3035V18.6255ZM17.5965 19.2573V20.2645H12.3035V19.2573H17.5965ZM12.3035 16.9872V15.98H17.597V16.9872H12.3035ZM12.3035 20.8964H17.597V21.9035H12.3035V20.8964ZM17.5965 14.3675V15.3484L12.3035 15.3482V14.3673L17.5965 14.3675ZM12.3035 23.5575V22.535H17.597L17.5968 23.5575H12.3035ZM25.9192 8.82432H19.9944C19.8201 8.82432 19.6786 8.96589 19.6786 9.14015L19.6784 23.8733C19.6784 24.0476 19.8199 24.1891 19.9942 24.1891H25.9191C26.0933 24.1891 26.2349 24.0476 26.2349 23.8733L26.2351 9.14015C26.2351 8.96589 26.094 8.82432 25.9192 8.82432ZM20.3103 16.9863V15.9791H25.6038V16.9863H20.3103ZM25.6038 17.6179V18.6251H20.3103V17.6179H25.6038ZM20.3103 15.3478V14.3406H25.6038V15.3478H20.3103ZM20.3103 13.709V12.7018H25.6038V13.709H20.3103ZM20.3103 19.2568H25.6038V20.264H20.3103V19.2568ZM25.6038 12.0698H20.3103V11.0626H25.6038V12.0698ZM20.3103 20.896H25.6038V21.9032H20.3103V20.896ZM25.6038 9.45572V10.4308H20.3103V9.45572H25.6038ZM20.3103 23.5571V22.5347H25.6038V23.5571H20.3103ZM9.9056 18.6462H3.98075C3.80649 18.6462 3.66492 18.7878 3.66492 18.962V23.8734C3.66492 24.0476 3.80649 24.1892 3.98075 24.1892H9.9056C10.0799 24.1892 10.2214 24.0477 10.2214 23.8734V18.9625C10.2216 18.7881 10.0799 18.6465 9.9056 18.6465V18.6462ZM4.29664 20.9149H9.59018V21.9199H4.29664V20.9149ZM9.59018 19.2781V20.283H4.29664V19.2781H9.59018ZM4.29664 23.5572V22.5522H9.59018V23.5572H4.29664ZM16.0003 10.5342L23.1944 3.34017H19.8901C19.7158 3.34017 19.5742 3.19859 19.5742 3.02433C19.5742 2.85007 19.7158 2.7085 19.8901 2.7085H23.9572C24.1314 2.7085 24.273 2.85007 24.273 3.02433V7.09143C24.273 7.26569 24.1314 7.40727 23.9572 7.40727C23.7829 7.40727 23.6413 7.2657 23.6413 7.09143V3.78712L16.224 11.2045C16.1008 11.3277 15.9008 11.3277 15.7771 11.2045L13.4295 8.85685L6.16724 16.1195C6.10573 16.1811 6.02456 16.2123 5.94395 16.2123C5.86334 16.2123 5.78236 16.1812 5.72067 16.1195C5.59745 15.9963 5.59745 15.7964 5.72067 15.6731L13.2066 8.18718C13.3299 8.06397 13.5298 8.06397 13.6536 8.18718L16.0003 10.5342Z" stroke="#817AF3" stroke-width="0.180561" mask="url(#path-2-outside-1_2508_1071)"/>
</svg>
