<svg width="28" height="28" viewBox="0 0 28 28" fill="none" xmlns="http://www.w3.org/2000/svg">
<rect x="0.458008" width="27.0842" height="27.0842" rx="3.61122" fill="#E8F1FD"/>
<path d="M17.2671 7.5283C17.8183 7.5283 18.3471 7.30936 18.7369 6.91955C19.1267 6.52972 19.3457 6.00091 19.3457 5.4497C19.3457 4.89832 19.1267 4.3697 18.7369 3.97984C18.3471 3.59001 17.8183 3.37109 17.2671 3.37109C16.7157 3.37109 16.187 3.59004 15.7972 3.97984C15.4074 4.36968 15.1882 4.89827 15.1882 5.4497C15.1882 6.00091 15.4074 6.5297 15.7972 6.91955C16.187 7.30939 16.7156 7.5283 17.2671 7.5283ZM17.2671 4.55879C17.5032 4.55879 17.7298 4.65262 17.897 4.81979C18.0639 4.98674 18.1577 5.21335 18.1577 5.44969C18.1577 5.68583 18.0639 5.91244 17.897 6.0796C17.7298 6.24655 17.5032 6.3406 17.2671 6.3406C17.0307 6.3406 16.8041 6.24656 16.6369 6.0796C16.47 5.91244 16.3761 5.68583 16.3761 5.44969C16.3761 5.21335 16.47 4.98674 16.6369 4.81979C16.8041 4.65263 17.0307 4.55879 17.2671 4.55879Z" fill="#629FF4"/>
<path d="M20.5354 9.60741C20.5354 10.1588 20.7543 10.6874 21.1441 11.0773C21.534 11.4671 22.0628 11.686 22.614 11.686C23.1654 11.686 23.694 11.4671 24.0839 11.0773C24.4737 10.6874 24.6928 10.1588 24.6928 9.60741C24.6928 9.0562 24.4737 8.52741 24.0839 8.13756C23.694 7.74773 23.1654 7.52881 22.614 7.52881C22.0628 7.52881 21.534 7.74775 21.1441 8.13756C20.7543 8.52739 20.5354 9.0562 20.5354 9.60741ZM23.5049 9.60741C23.5049 9.84375 23.4111 10.0704 23.2441 10.2373C23.077 10.4045 22.8504 10.4983 22.614 10.4983C22.3779 10.4983 22.1513 10.4045 21.9841 10.2373C21.8171 10.0704 21.7233 9.84376 21.7233 9.60741C21.7233 9.37128 21.8171 9.14467 21.9841 8.97751C22.1513 8.81056 22.3779 8.71651 22.614 8.71651C22.8503 8.71651 23.077 8.81055 23.2441 8.97751C23.4111 9.14466 23.5049 9.37127 23.5049 9.60741Z" fill="#629FF4"/>
<path d="M16.9182 11.4205C17.0448 11.5145 17.2039 11.5541 17.3599 11.5307C17.5158 11.5072 17.6561 11.4227 17.7497 11.2958L22.7978 4.46588V4.46608C22.9929 4.20198 22.9372 3.82976 22.6731 3.63462C22.409 3.43929 22.0368 3.49522 21.8417 3.75932L16.7935 10.5892V10.589C16.6995 10.7158 16.6599 10.8746 16.6833 11.0306C16.7067 11.1866 16.7913 11.327 16.9182 11.4204L16.9182 11.4205Z" fill="#629FF4"/>
<path d="M7.76565 8.41992C6.92241 8.41992 2.71753 8.50609 2.71753 10.2017C2.71753 11.8974 6.92241 11.9835 7.76565 11.9835C8.60888 11.9835 12.8138 11.8974 12.8138 10.2017C12.814 8.50609 8.6091 8.41992 7.76565 8.41992ZM7.76565 10.7956C5.78212 10.7956 4.49908 10.454 4.03594 10.2017C4.49931 9.94924 5.78212 9.60767 7.76565 9.60767C9.74918 9.60767 11.0322 9.94924 11.4954 10.2015C11.0322 10.454 9.74939 10.7956 7.76565 10.7956Z" fill="#629FF4"/>
<path d="M12.2238 11.5364C11.9297 11.5324 11.677 11.7448 11.63 12.0352C11.3686 12.2846 10.0116 12.7241 7.76956 12.7241C5.52774 12.7241 4.16166 12.2788 3.90935 12.0352C3.88305 11.7073 3.59595 11.4626 3.26783 11.4887C2.93994 11.515 2.6953 11.8021 2.72139 12.1302C2.72139 13.8259 6.92627 13.9121 7.76951 13.9121C8.61275 13.9121 12.8176 13.8259 12.8176 12.1302H12.8178C12.8178 11.9726 12.7553 11.8216 12.6438 11.7102C12.5324 11.5989 12.3814 11.5364 12.2238 11.5364H12.2238Z" fill="#629FF4"/>
<path d="M12.2238 13.616C11.9297 13.6122 11.677 13.8244 11.63 14.1148C11.3686 14.3641 10.0116 14.8037 7.76956 14.8037C5.52774 14.8037 4.16166 14.3583 3.90935 14.1148C3.88305 13.7869 3.59595 13.5422 3.26783 13.5683C2.93994 13.5946 2.6953 13.8817 2.72139 14.2098C2.72139 15.9055 6.92627 15.9916 7.76951 15.9916C8.61275 15.9916 12.8176 15.9055 12.8176 14.2098H12.8178C12.8178 14.0524 12.7553 13.9012 12.6438 13.79C12.5324 13.6785 12.3814 13.616 12.2238 13.616H12.2238Z" fill="#629FF4"/>
<path d="M12.2231 15.6944C11.929 15.6907 11.6763 15.9028 11.6292 16.1932C11.3678 16.4426 10.0109 16.8821 7.76883 16.8821C5.52701 16.8821 4.16092 16.4368 3.90862 16.1932C3.88232 15.8653 3.59522 15.6207 3.2671 15.647C2.9392 15.6731 2.69457 15.9604 2.72066 16.2883C2.72066 17.9839 6.92554 18.0701 7.76878 18.0701C8.61201 18.0701 12.8169 17.9839 12.8169 16.2883H12.8171C12.8171 16.1308 12.7545 15.9796 12.6431 15.8684C12.5317 15.757 12.3807 15.6944 12.223 15.6944H12.2231Z" fill="#629FF4"/>
<path d="M12.2238 17.7745C11.9297 17.7708 11.677 17.9829 11.63 18.2735C11.3686 18.5229 10.0116 18.9624 7.76956 18.9624C5.52774 18.9624 4.16166 18.5169 3.90935 18.2735C3.88305 17.9454 3.59595 17.7007 3.26783 17.727C2.93994 17.7533 2.6953 18.0404 2.72139 18.3683C2.72139 20.064 6.92627 20.1502 7.76951 20.1502C8.61275 20.1502 12.8176 20.064 12.8176 18.3683H12.8178C12.8178 18.2109 12.7553 18.0599 12.6438 17.9485C12.5324 17.837 12.3814 17.7745 12.2238 17.7745H12.2238Z" fill="#629FF4"/>
<path d="M12.2231 19.8526C11.929 19.8489 11.6763 20.0612 11.6292 20.3516C11.3678 20.601 10.0109 21.0405 7.76883 21.0405C5.52701 21.0405 4.16092 20.595 3.90862 20.3516C3.88232 20.0235 3.59522 19.7789 3.2671 19.8052C2.9392 19.8315 2.69457 20.1186 2.72066 20.4467C2.72066 22.1423 6.92554 22.2285 7.76878 22.2285C8.61201 22.2285 12.8169 22.1423 12.8169 20.4467H12.8171C12.8171 20.289 12.7545 20.138 12.6431 20.0266C12.5317 19.9152 12.3807 19.8526 12.223 19.8526L12.2231 19.8526Z" fill="#629FF4"/>
<path d="M20.24 17.6242C21.0832 17.6242 25.2881 17.538 25.2881 15.8424C25.2881 14.1467 21.0832 14.0605 20.24 14.0605C19.3968 14.0605 15.1919 14.1467 15.1919 15.8424C15.1917 17.5382 19.3966 17.6242 20.24 17.6242ZM20.24 15.2485C22.2235 15.2485 23.5066 15.5901 23.9697 15.8424C23.5064 16.0949 22.2235 16.4364 20.24 16.4364C18.2565 16.4364 16.9734 16.0949 16.5103 15.8426C16.9735 15.5901 18.2563 15.2487 20.24 15.2487V15.2485Z" fill="#629FF4"/>
<path d="M24.6952 17.1798C24.4009 17.176 24.1484 17.3881 24.1012 17.6785C23.8398 17.9279 22.4828 18.3675 20.2408 18.3675C17.9989 18.3675 16.6328 17.9221 16.3805 17.6785C16.3542 17.3506 16.0671 17.106 15.739 17.1323C15.4111 17.1584 15.1665 17.4457 15.1926 17.7736C15.1926 19.4693 19.3975 19.5554 20.2407 19.5554C21.0839 19.5554 25.2888 19.4693 25.2888 17.7736H25.289C25.289 17.6162 25.2265 17.465 25.115 17.3537C25.0036 17.2423 24.8526 17.1798 24.6952 17.1798H24.6952Z" fill="#629FF4"/>
<path d="M24.694 19.2569C24.3997 19.2532 24.1472 19.4653 24.1 19.7559C23.8385 20.0053 22.4816 20.4448 20.2395 20.4448C17.9977 20.4448 16.6316 19.9993 16.3793 19.7559C16.353 19.4278 16.0659 19.1832 15.7378 19.2095C15.4099 19.2358 15.1653 19.5229 15.1914 19.8508C15.1914 21.5464 19.3962 21.6326 20.2395 21.6326C21.0827 21.6326 25.2876 21.5464 25.2876 19.8508H25.2878C25.2878 19.6933 25.2253 19.5423 25.1138 19.4309C25.0024 19.3195 24.8514 19.2569 24.6939 19.2569H24.694Z" fill="#629FF4"/>
<path d="M24.6945 21.337C24.4002 21.3333 24.1477 21.5456 24.1004 21.836C23.839 22.0854 22.4821 22.5249 20.24 22.5249C17.9982 22.5249 16.6321 22.0794 16.3798 21.836C16.3535 21.5079 16.0664 21.2632 15.7383 21.2895C15.4104 21.3158 15.1658 21.6029 15.1918 21.9311C15.1918 23.6267 19.3967 23.7129 20.24 23.7129C21.0832 23.7129 25.2881 23.6267 25.2881 21.9311H25.2883C25.2883 21.7734 25.2257 21.6224 25.1143 21.511C25.0029 21.3995 24.8519 21.337 24.6944 21.337L24.6945 21.337Z" fill="#629FF4"/>
</svg>
