<svg width="27" height="28" viewBox="0 0 27 28" fill="none" xmlns="http://www.w3.org/2000/svg">
<path d="M24.3176 23.204L19.0778 17.9649C18.8117 17.6988 18.4357 17.6144 18.0959 17.7041L16.9718 16.5799C18.24 15.1434 19.017 13.2629 19.017 11.2003C19.017 6.70896 15.3631 3.05469 10.8717 3.05469C6.37961 3.05469 2.72534 6.70896 2.72534 11.201C2.72534 15.6927 6.37961 19.3466 10.8717 19.3466C12.934 19.3466 14.8144 18.57 16.2513 17.3014L17.3755 18.4256C17.2858 18.7653 17.3698 19.141 17.6362 19.4074L22.8753 24.6462C23.0749 24.8457 23.3353 24.945 23.5965 24.945C23.8576 24.945 24.1183 24.8454 24.3176 24.6462C24.7157 24.2481 24.7157 23.6024 24.3176 23.2039L24.3176 23.204ZM3.74535 11.2007C3.74535 7.27172 6.9418 4.07463 10.8714 4.07463C14.801 4.07463 17.997 7.27172 17.997 11.201C17.997 15.13 14.8002 18.3267 10.8714 18.3267C6.94253 18.3267 3.74535 15.1299 3.74535 11.2007Z" fill="#48505E"/>
</svg>
