<svg width="28" height="28" viewBox="0 0 28 28" fill="none" xmlns="http://www.w3.org/2000/svg">
<g clip-path="url(#clip0_2525_373)">
<path d="M13.5661 16.653C15.1211 16.653 16.3818 15.3924 16.3818 13.8373C16.3818 12.2823 15.1211 11.0216 13.5661 11.0216C12.011 11.0216 10.7504 12.2823 10.7504 13.8373C10.7504 15.3924 12.011 16.653 13.5661 16.653Z" stroke="#5D6679" stroke-width="1.35152" stroke-linecap="round" stroke-linejoin="round"/>
<path d="M20.5114 16.653C20.3865 16.9361 20.3492 17.2501 20.4044 17.5546C20.4596 17.859 20.6048 18.14 20.8211 18.3612L20.8775 18.4175C21.052 18.5918 21.1904 18.7988 21.2849 19.0267C21.3794 19.2546 21.428 19.4989 21.428 19.7455C21.428 19.9922 21.3794 20.2365 21.2849 20.4644C21.1904 20.6922 21.052 20.8993 20.8775 21.0736C20.7031 21.2481 20.4961 21.3866 20.2682 21.4811C20.0403 21.5755 19.7961 21.6241 19.5494 21.6241C19.3027 21.6241 19.0584 21.5755 18.8306 21.4811C18.6027 21.3866 18.3957 21.2481 18.2213 21.0736L18.165 21.0173C17.9438 20.8009 17.6629 20.6558 17.3584 20.6006C17.0539 20.5454 16.7399 20.5826 16.4568 20.7076C16.1792 20.8265 15.9425 21.0241 15.7757 21.2759C15.609 21.5277 15.5195 21.8228 15.5183 22.1248V22.2843C15.5183 22.7822 15.3205 23.2596 14.9685 23.6117C14.6165 23.9637 14.139 24.1615 13.6412 24.1615C13.1433 24.1615 12.6659 23.9637 12.3138 23.6117C11.9618 23.2596 11.7641 22.7822 11.7641 22.2843V22.1999C11.7568 21.8892 11.6562 21.5879 11.4755 21.3352C11.2947 21.0824 11.0421 20.8899 10.7504 20.7827C10.4673 20.6577 10.1533 20.6205 9.84884 20.6757C9.54438 20.7309 9.26343 20.876 9.04223 21.0924L8.98592 21.1487C8.81159 21.3232 8.60456 21.4617 8.37668 21.5561C8.1488 21.6506 7.90454 21.6992 7.65786 21.6992C7.41118 21.6992 7.16691 21.6506 6.93904 21.5561C6.71116 21.4617 6.50413 21.3232 6.3298 21.1487C6.15527 20.9744 6.01682 20.7673 5.92235 20.5395C5.82789 20.3116 5.77927 20.0673 5.77927 19.8206C5.77927 19.574 5.82789 19.3297 5.92235 19.1018C6.01682 18.8739 6.15527 18.6669 6.3298 18.4926L6.38611 18.4363C6.60249 18.2151 6.74763 17.9341 6.80284 17.6297C6.85804 17.3252 6.82077 17.0112 6.69584 16.7281C6.57686 16.4505 6.37931 16.2137 6.12751 16.047C5.8757 15.8802 5.58063 15.7907 5.27861 15.7895H5.11906C4.62122 15.7895 4.14377 15.5918 3.79174 15.2397C3.43971 14.8877 3.24194 14.4103 3.24194 13.9124C3.24194 13.4146 3.43971 12.9371 3.79174 12.5851C4.14377 12.2331 4.62122 12.0353 5.11906 12.0353H5.20353C5.51419 12.028 5.81547 11.9275 6.06822 11.7467C6.32097 11.5659 6.51349 11.3133 6.62075 11.0216C6.74569 10.7386 6.78296 10.4245 6.72775 10.1201C6.67255 9.81562 6.5274 9.53467 6.31103 9.31347L6.25472 9.25716C6.08019 9.08283 5.94173 8.8758 5.84727 8.64792C5.7528 8.42005 5.70418 8.17578 5.70418 7.9291C5.70418 7.68242 5.7528 7.43815 5.84727 7.21028C5.94173 6.9824 6.08019 6.77537 6.25472 6.60104C6.42905 6.42651 6.63607 6.28806 6.86395 6.19359C7.09183 6.09913 7.33609 6.05051 7.58278 6.05051C7.82946 6.05051 8.07372 6.09913 8.3016 6.19359C8.52948 6.28806 8.7365 6.42651 8.91083 6.60104L8.96715 6.65735C9.18835 6.87373 9.46929 7.01887 9.77376 7.07408C10.0782 7.12928 10.3922 7.09201 10.6753 6.96708H10.7504C11.028 6.8481 11.2648 6.65055 11.4315 6.39875C11.5983 6.14694 11.6878 5.85187 11.689 5.54986V5.3903C11.689 4.89246 11.8867 4.41501 12.2388 4.06298C12.5908 3.71095 13.0682 3.51318 13.5661 3.51318C14.0639 3.51318 14.5414 3.71095 14.8934 4.06298C15.2454 4.41501 15.4432 4.89246 15.4432 5.3903V5.47477C15.4444 5.77679 15.5339 6.07186 15.7007 6.32366C15.8674 6.57547 16.1042 6.77302 16.3818 6.89199C16.6648 7.01693 16.9789 7.0542 17.2833 6.99899C17.5878 6.94379 17.8687 6.79864 18.0899 6.58227L18.1462 6.52596C18.3206 6.35143 18.5276 6.21297 18.7555 6.11851C18.9834 6.02404 19.2276 5.97542 19.4743 5.97542C19.721 5.97542 19.9653 6.02404 20.1931 6.11851C20.421 6.21297 20.628 6.35143 20.8024 6.52596C20.9769 6.70029 21.1153 6.90731 21.2098 7.13519C21.3043 7.36307 21.3529 7.60733 21.3529 7.85402C21.3529 8.1007 21.3043 8.34496 21.2098 8.57284C21.1153 8.80072 20.9769 9.00774 20.8024 9.18208L20.7461 9.23839C20.5297 9.45959 20.3845 9.74053 20.3293 10.045C20.2741 10.3495 20.3114 10.6635 20.4363 10.9466V11.0216C20.5553 11.2992 20.7529 11.536 21.0047 11.7028C21.2565 11.8695 21.5515 11.959 21.8536 11.9602H22.0131C22.511 11.9602 22.9884 12.158 23.3404 12.51C23.6925 12.862 23.8902 13.3395 23.8902 13.8373C23.8902 14.3352 23.6925 14.8126 23.3404 15.1646C22.9884 15.5167 22.511 15.7144 22.0131 15.7144H21.9286C21.6266 15.7156 21.3316 15.8051 21.0797 15.9719C20.8279 16.1387 20.6304 16.3754 20.5114 16.653Z" stroke="#5D6679" stroke-width="1.35152" stroke-linecap="round" stroke-linejoin="round"/>
</g>
<defs>
<clipPath id="clip0_2525_373">
<rect width="22.5254" height="22.5254" fill="white" transform="translate(2.30347 2.57471)"/>
</clipPath>
</defs>
</svg>
